/* XPM */
static char * coin_xpm[] = {
"16 16 4 1",
" 	c None",
".	c #B86F50",
"+	c #E4A672",
"@	c #EAD4AA",
"                ",
"                ",
"                ",
"                ",
"                ",
"       ..       ",
"      .++.      ",
"     .+@@+.     ",
"     .+@@+.     ",
"      .++.      ",
"       ..       ",
"                ",
"                ",
"                ",
"                ",
"                "};
