/* XPM */
static char *_007[] = {
/* columns rows colors chars-per-pixel */
"128 16 4 1 ",
"  c None",
". c #B86F50",
"X c #E4A672",
"o c #EAD4AA",
/* pixels */
"                                                                                                                                ",
"                                                                                                                                ",
"                                                                                                                                ",
"                                                                                                                                ",
"                                                                                                                                ",
"       ..                                                                                                              ..       ",
"      .XX.             ..              ..                                              ..              ..             .XX.      ",
"     .XooX.           .XX.            ....             ..              ..             .XX.            .XX.           .XooX.     ",
"     .XooX.          .XooX.          ..XX..           .XX.            .XX.           .XooX.          .XooX.          .XooX.     ",
"      .XX.           .XooX.          .XooX.          .XooX.          .XooX.          .XooX.          .XooX.          ..XX..     ",
"       ..             .XX.           .XooX.          .XooX.          .XooX.          ..XX..           .XX.            ....      ",
"                       ..             .XX.            .XX.            .XX.            ....             ..              ..       ",
"                                       ..              ..              ..              ..                                       ",
"                                                                                                                                ",
"                                                                                                                                ",
"                                                                                                                                "
};
