/* XPM */
static char * exit_xpm[] = {
"16 16 3 1",
" 	c None",
".	c #E6E6FA",
"+	c #C0C0FD",
"      ....      ",
"     .++++.     ",
"    .++++++.    ",
"   .++++++++.   ",
"  .++++++++++.  ",
"  .++++++++++.  ",
"  .++++++++++.  ",
"  .++++++++++.  ",
"  .++++++++++.  ",
"  .++++++++++.  ",
"  .++++++++++.  ",
"  .++++++++++.  ",
"   .++++++++.   ",
"    .++++++.    ",
"     .++++.     ",
"      ....      "};
