/* XPM */
static char * pacMan_xpm[] = {
"16 16 7 1",
" 	c None",
".	c #E4A672",
"+	c #EAD4AA",
"@	c #FEE761",
"#	c #181425",
"$	c #FFFFFF",
"%	c #3F2832",
"                ",
"      ....      ",
"    ..+@@+..    ",
"   .+@@@@@@+.   ",
"  .+@@.#@@@@+.  ",
"  .@@@$%@@@+..  ",
" .+@@@@@@+..    ",
" .@@@@@@+.      ",
" .@@@@@@+.      ",
" .+@@@@@@+..    ",
"  .@@@@@@@@+..  ",
"  .+@@@@@@@@+.  ",
"   .+@@@@@@+.   ",
"    ..+@@+..    ",
"      ....      ",
"                "};
